# xmcd CD database file
#
# Track frame offsets:
#	150
#	15685
#	26735
#
# Disc length: 511 seconds
#
# Revision: 0
# Processed by: cddbd v1.5.2PL0 Copyright (c) Steve Scherf et al.
# Submitted via: CDex 1.70beta2
#
DISCID=1b01fd03
DTITLE=SUZANNE KLEE - SWEET NOTHIN'S
DYEAR=1996
DGENRE=Country
TTITLE0=EVERYTIME LOVE COMES AROUND
TTITLE1=TOO LATE TO TURN BACK NOW
TTITLE2=SWEET NOTHIN'S
EXTD=YEAR: 1996
EXTT0=
EXTT1=
EXTT2=
PLAYORDER=
